<svg aria-hidden="true" style="position: absolute; width: 0; height: 0; overflow: hidden;" version="1.1" xmlns="http://www.w3.org/2000/svg" xmlns:xlink="http://www.w3.org/1999/xlink">
<defs>
<symbol id="icon-gmail" viewBox="0 0 58 32">
<path fill="#eaeaea" style="fill: var(--color1, #eaeaea)" d="M47.267 32h-36.903c-1.456 0-2.636-1.18-2.636-2.636v0-26.359c0-1.456 1.18-2.636 2.636-2.636v0h36.902c0 0 0 0 0.001 0 1.456 0 2.636 1.18 2.636 2.636v26.358c0 0 0 0 0 0.001 0 1.456-1.18 2.636-2.636 2.636-0 0-0.001 0-0.001 0h0z"></path>
<path fill="#898feb" style="fill: var(--color2, #898feb)" d="M13 32h-2.636c-1.456 0-2.636-1.18-2.636-2.636v0-26.359c0-1.456 1.18-2.636 2.636-2.636s2.636 1.18 2.636 2.636v0 28.995z"></path>
<path fill="#6970d8" style="fill: var(--color3, #6970d8)" d="M44.632 32h2.636c1.456 0 2.636-1.18 2.636-2.636v0-26.359c0-0.012 0-0.027 0-0.041 0-1.456-1.18-2.636-2.636-2.636s-2.636 1.18-2.636 2.636c0 0.014 0 0.029 0 0.043l-0-0.002v28.995z"></path>
<path fill="#898feb" style="fill: var(--color2, #898feb)" d="M48.778 5.166c0.699-0.481 1.151-1.277 1.151-2.178 0-1.456-1.181-2.637-2.637-2.637-0.575 0-1.108 0.184-1.541 0.497l0.008-0.005-16.943 12.335-16.941-12.335c-0.428-0.312-0.964-0.499-1.544-0.499-1.456 0-2.637 1.181-2.637 2.637 0 0.906 0.457 1.705 1.153 2.18l0.009 0.006-0.070-0.052 20.032 14.584 19.96-14.532zM48.848 5.114l-20.032 14.584z"></path>
<path fill="#efefef" style="fill: var(--color4, #efefef)" d="M47.267 0.369c-0.561 0-1.082 0.176-1.509 0.474l-16.944 12.335-16.941-12.334c-0.419-0.297-0.941-0.474-1.505-0.474-0.001 0-0.003 0-0.004 0h36.903z"></path>
<path fill="#6970d8" style="fill: var(--color3, #6970d8)" d="M13.001 9.32l-4.442-4.4-0.002 0.003c0.093 0.088 0.192 0.169 0.298 0.243l-0.070-0.052 4.218 3.071-0.001 1.167z"></path>
<path fill="#e3e3e3" style="fill: var(--color5, #e3e3e3)" d="M25.888 21.976l-12.888 10.024 0.001-22.79 12.884 12.762z"></path>
<path fill="#D9D9D9" style="fill: var(--color6, #D9D9D9)" d="M25.888 21.976l2.927-2.277-15.814-11.514v1.025l12.887 12.765z"></path>
<path fill="#D9D9D9" style="fill: var(--color6, #D9D9D9)" d="M35.898 32h8.733v-23.816l-15.816 11.515-2.93 2.273 10.012 10.028z"></path>
</symbol>
<symbol id="icon-salesforce" viewBox="0 0 46 32">
<path fill="#898feb" style="fill: var(--color2, #898feb)" d="M19.087 3.491c1.479-1.536 3.539-2.489 5.817-2.489 3.028 0 5.669 1.683 7.076 4.18 1.172-0.535 2.542-0.846 3.985-0.846 0.005 0 0.010 0 0.015 0h-0.001c5.461 0 9.888 4.451 9.888 9.941s-4.427 9.941-9.888 9.941c-0.654 0.001-1.307-0.064-1.948-0.193-1.263 2.219-3.612 3.691-6.304 3.691-0.002 0-0.003 0-0.005 0h0c-1.134 0-2.207-0.261-3.162-0.725-1.292 2.969-4.201 5.008-7.586 5.008-0.002 0-0.004 0-0.006 0h0c-3.551 0-6.578-2.239-7.739-5.38-0.508 0.108-1.034 0.164-1.573 0.164-4.229-0.001-7.656-3.452-7.656-7.71 0-0.003 0-0.008 0-0.012 0-2.829 1.522-5.303 3.792-6.646l0.036-0.020c-0.463-1.036-0.733-2.245-0.733-3.517 0-0.003 0-0.007 0-0.010v0.001c0-4.897 3.989-8.867 8.909-8.867 2.889 0 5.456 1.369 7.083 3.49z"></path>
<path fill="#fff" style="fill: var(--color7, #fff)" d="M6.643 16.594c-0.029 0.075 0.011 0.091 0.020 0.104 0.086 0.062 0.174 0.107 0.262 0.157 0.468 0.247 0.91 0.32 1.372 0.32 0.941 0 1.525-0.499 1.525-1.302v-0.016c0-0.742-0.659-1.012-1.278-1.206l-0.080-0.026c-0.467-0.151-0.869-0.281-0.869-0.587v-0.016c0-0.262 0.235-0.455 0.599-0.455 0.405 0 0.886 0.134 1.196 0.305 0 0 0.091 0.059 0.124-0.029 0.018-0.047 0.175-0.468 0.192-0.514 0.017-0.049-0.014-0.085-0.046-0.105-0.353-0.214-0.842-0.361-1.348-0.361l-0.094 0.001c-0.861 0-1.462 0.518-1.462 1.261v0.016c0 0.783 0.663 1.037 1.285 1.214l0.1 0.030c0.453 0.139 0.843 0.258 0.843 0.576v0.015c0 0.29-0.253 0.507-0.662 0.507-0.005 0-0.010 0-0.016 0-0.444 0-0.857-0.13-1.205-0.353l0.009 0.005c-0.066-0.038-0.105-0.067-0.156-0.097-0.027-0.017-0.094-0.046-0.123 0.043l-0.186 0.513zM20.417 16.594c-0.029 0.075 0.011 0.091 0.020 0.104 0.086 0.062 0.174 0.107 0.261 0.157 0.468 0.247 0.91 0.32 1.372 0.32 0.941 0 1.525-0.499 1.525-1.302v-0.016c0-0.742-0.659-1.012-1.278-1.206l-0.080-0.026c-0.467-0.151-0.869-0.281-0.869-0.587v-0.016c0-0.262 0.235-0.455 0.6-0.455 0.405 0 0.886 0.134 1.196 0.305 0 0 0.091 0.059 0.124-0.029 0.018-0.047 0.175-0.468 0.191-0.514 0.018-0.049-0.013-0.085-0.045-0.105-0.354-0.214-0.843-0.361-1.348-0.361l-0.094 0.001c-0.861 0-1.462 0.518-1.462 1.261v0.016c0 0.783 0.663 1.037 1.285 1.214l0.1 0.030c0.453 0.139 0.844 0.258 0.844 0.576v0.015c0 0.29-0.254 0.507-0.663 0.507-0.005 0-0.010 0-0.016 0-0.444 0-0.857-0.13-1.205-0.353l0.009 0.005c-0.066-0.038-0.105-0.065-0.155-0.097-0.017-0.011-0.097-0.042-0.124 0.043l-0.186 0.513zM29.82 15.022c0 0.453-0.085 0.811-0.252 1.064-0.165 0.25-0.416 0.372-0.765 0.372s-0.598-0.121-0.761-0.372c-0.165-0.252-0.248-0.61-0.248-1.064s0.083-0.811 0.248-1.060c0.163-0.247 0.412-0.368 0.761-0.368s0.599 0.121 0.765 0.368c0.166 0.25 0.251 0.607 0.251 1.060zM30.605 14.18c-0.076-0.262-0.199-0.489-0.36-0.683l0.003 0.003c-0.16-0.191-0.363-0.345-0.603-0.457s-0.523-0.168-0.842-0.168c-0.319 0-0.603 0.057-0.842 0.168s-0.443 0.266-0.604 0.457c-0.158 0.191-0.28 0.418-0.354 0.666l-0.003 0.014c-0.073 0.245-0.115 0.527-0.115 0.819 0 0.008 0 0.016 0 0.024v-0.001c0 0.3 0.039 0.583 0.115 0.841 0.078 0.259 0.197 0.489 0.358 0.68s0.364 0.345 0.603 0.453c0.24 0.109 0.523 0.164 0.843 0.164 0.318 0 0.601-0.055 0.841-0.164s0.443-0.262 0.603-0.453c0.16-0.191 0.28-0.42 0.357-0.68 0.073-0.245 0.116-0.526 0.116-0.818 0-0.008-0-0.016-0-0.025v0.001c0-0.3-0.038-0.583-0.116-0.842zM37.054 16.337c-0.026-0.076-0.1-0.048-0.1-0.048-0.105 0.044-0.227 0.080-0.354 0.103l-0.011 0.002c-0.125 0.019-0.269 0.030-0.416 0.030-0.005 0-0.010 0-0.016-0h0.001c-0.38 0-0.683-0.113-0.899-0.335s-0.338-0.582-0.337-1.070c0.002-0.443 0.108-0.777 0.301-1.030 0.191-0.253 0.483-0.382 0.871-0.382 0.324 0 0.571 0.037 0.83 0.118 0 0 0.062 0.027 0.091-0.054 0.069-0.19 0.12-0.326 0.193-0.535 0.021-0.059-0.030-0.085-0.049-0.092-0.148-0.054-0.325-0.099-0.507-0.129l-0.018-0.002c-0.168-0.025-0.361-0.040-0.558-0.040-0.011 0-0.022 0-0.033 0h0.002c-0.331 0-0.624 0.056-0.876 0.168-0.251 0.111-0.464 0.265-0.633 0.457-0.166 0.191-0.297 0.417-0.379 0.666l-0.004 0.014c-0.081 0.245-0.128 0.528-0.128 0.821 0 0.007 0 0.015 0 0.022v-0.001c0 0.65 0.176 1.174 0.523 1.558 0.348 0.386 0.87 0.581 1.551 0.581 0.402 0 0.815-0.081 1.112-0.197 0 0 0.057-0.028 0.032-0.093l-0.193-0.531zM38.429 14.587c0.037-0.252 0.107-0.462 0.215-0.626 0.163-0.248 0.411-0.384 0.76-0.384s0.579 0.137 0.745 0.384c0.11 0.164 0.157 0.382 0.176 0.625h-1.895zM41.073 14.033c-0.072-0.24-0.189-0.447-0.342-0.622l0.002 0.002c-0.171-0.184-0.338-0.312-0.504-0.384-0.224-0.097-0.485-0.154-0.759-0.154-0.001 0-0.002 0-0.004 0h0c-0.332 0-0.633 0.055-0.877 0.171-0.245 0.114-0.451 0.27-0.612 0.465s-0.283 0.426-0.36 0.688c-0.075 0.247-0.117 0.532-0.117 0.826 0 0.007 0 0.014 0 0.020v-0.001c0 0.306 0.041 0.59 0.121 0.846 0.081 0.258 0.211 0.485 0.386 0.673 0.174 0.19 0.399 0.338 0.668 0.442 0.267 0.103 0.592 0.156 0.965 0.156 0.768-0.003 1.172-0.173 1.339-0.265 0.029-0.016 0.058-0.045 0.022-0.127l-0.173-0.485c-0.027-0.073-0.1-0.045-0.1-0.045-0.19 0.070-0.46 0.196-1.091 0.195-0.412-0.001-0.718-0.122-0.909-0.311-0.197-0.194-0.293-0.479-0.309-0.882l2.658 0.003s0.070-0.002 0.077-0.069c0.003-0.028 0.091-0.544-0.079-1.141zM17.138 14.587c0.037-0.252 0.107-0.462 0.215-0.626 0.163-0.248 0.411-0.384 0.759-0.384s0.58 0.137 0.746 0.384c0.109 0.164 0.157 0.382 0.176 0.625h-1.896zM19.781 14.033c-0.072-0.24-0.188-0.447-0.341-0.622l0.002 0.002c-0.171-0.184-0.338-0.312-0.504-0.384-0.224-0.097-0.485-0.154-0.759-0.154-0.001 0-0.003 0-0.004 0h0c-0.331 0-0.633 0.055-0.877 0.171-0.245 0.114-0.451 0.27-0.612 0.465s-0.283 0.426-0.36 0.688c-0.075 0.248-0.117 0.534-0.117 0.829 0 0.006 0 0.011 0 0.017v-0.001c0 0.306 0.041 0.59 0.121 0.846 0.081 0.258 0.211 0.485 0.386 0.673 0.174 0.19 0.399 0.338 0.668 0.442 0.267 0.103 0.592 0.156 0.965 0.156 0.768-0.003 1.172-0.173 1.339-0.265 0.029-0.016 0.058-0.045 0.022-0.127l-0.173-0.485c-0.027-0.073-0.101-0.045-0.101-0.045-0.19 0.070-0.46 0.196-1.092 0.195-0.411-0.001-0.717-0.122-0.909-0.311-0.197-0.194-0.293-0.479-0.309-0.882l2.658 0.003s0.070-0.002 0.077-0.069c0.003-0.028 0.091-0.544-0.080-1.141zM11.391 16.322c-0.104-0.083-0.118-0.103-0.154-0.157-0.052-0.081-0.079-0.197-0.079-0.345 0-0.233 0.077-0.4 0.237-0.513-0.002 0.001 0.228-0.198 0.771-0.191 0.381 0.005 0.722 0.061 0.722 0.061v1.205s-0.338 0.072-0.717 0.095c-0.541 0.033-0.782-0.156-0.78-0.155zM12.449 14.46c-0.117-0.008-0.253-0.013-0.391-0.013-0.009 0-0.017 0-0.026 0h0.001c-0.228 0-0.448 0.029-0.654 0.084-0.208 0.055-0.395 0.142-0.555 0.256s-0.29 0.261-0.382 0.431l-0.003 0.007c-0.090 0.17-0.142 0.371-0.142 0.585 0 0.009 0 0.018 0 0.027l-0-0.001c0 0.235 0.041 0.438 0.122 0.605s0.198 0.307 0.347 0.414c0.148 0.108 0.33 0.187 0.542 0.234 0.208 0.047 0.445 0.071 0.704 0.071 0.272 0 0.544-0.022 0.807-0.067 0.261-0.044 0.581-0.109 0.67-0.129 0.062-0.015 0.124-0.031 0.187-0.048 0.066-0.016 0.060-0.086 0.060-0.086l-0.001-2.423c0-0.532-0.142-0.925-0.423-1.17-0.279-0.244-0.69-0.367-1.221-0.367-0.199 0-0.52 0.028-0.712 0.066 0 0-0.581 0.112-0.82 0.299 0 0-0.052 0.032-0.023 0.106l0.188 0.504c0.023 0.065 0.087 0.043 0.087 0.043s0.020-0.007 0.044-0.021c0.511-0.277 1.158-0.269 1.158-0.269 0.287 0 0.508 0.057 0.657 0.171 0.145 0.111 0.219 0.278 0.219 0.631v0.112c-0.228-0.033-0.438-0.051-0.438-0.051zM33.891 13.095c0.004-0.008 0.006-0.018 0.006-0.029 0-0.030-0.019-0.056-0.046-0.067l-0.001-0c-0.13-0.037-0.282-0.064-0.438-0.076l-0.008-0c-0.334-0.020-0.519 0.036-0.685 0.11s-0.348 0.194-0.45 0.33v-0.322c0-0.045-0.032-0.081-0.077-0.081h-0.681c-0.045 0-0.077 0.036-0.077 0.081v3.952c0 0.044 0.037 0.081 0.081 0.081h0.699c0.044-0.001 0.080-0.036 0.080-0.081v-1.975c0-0.265 0.030-0.53 0.089-0.695 0.058-0.164 0.136-0.296 0.233-0.39 0.098-0.094 0.208-0.159 0.329-0.197 0.106-0.031 0.228-0.050 0.354-0.050 0.001 0 0.003 0 0.004 0h-0c0.139 0 0.292 0.036 0.292 0.036 0.051 0.005 0.080-0.026 0.097-0.072 0.046-0.121 0.175-0.484 0.2-0.556z"></path>
<path fill="#fff" style="fill: var(--color7, #fff)" d="M27.335 11.263c-0.070-0.022-0.159-0.044-0.249-0.060l-0.014-0.002c-0.101-0.017-0.218-0.027-0.337-0.027-0.009 0-0.017 0-0.026 0h0.001c-0.481 0-0.86 0.135-1.126 0.402-0.265 0.266-0.444 0.67-0.534 1.202l-0.033 0.179h-0.603s-0.074-0.003-0.089 0.077l-0.099 0.551c-0.007 0.052 0.016 0.085 0.086 0.085h0.587l-0.596 3.316c-0.046 0.267-0.1 0.487-0.16 0.653-0.058 0.164-0.115 0.287-0.185 0.377-0.068 0.086-0.132 0.15-0.243 0.187-0.091 0.031-0.197 0.045-0.313 0.045-0.064 0-0.149-0.011-0.213-0.023-0.054-0.011-0.102-0.027-0.147-0.048l0.004 0.002s-0.068-0.026-0.096 0.043c-0.021 0.057-0.178 0.485-0.197 0.539-0.018 0.052 0.008 0.093 0.041 0.106 0.079 0.028 0.137 0.046 0.243 0.071 0.148 0.035 0.273 0.037 0.389 0.037 0.244 0 0.468-0.035 0.653-0.101s0.348-0.183 0.491-0.341c0.155-0.171 0.252-0.349 0.345-0.593 0.095-0.252 0.177-0.551 0.23-0.86l0.004-0.030 0.599-3.378h0.876s0.074 0.003 0.089-0.077l0.099-0.551c0.006-0.053-0.016-0.085-0.087-0.085h-0.85c0.004-0.019 0.043-0.317 0.14-0.597 0.042-0.119 0.121-0.217 0.187-0.283 0.065-0.066 0.14-0.112 0.222-0.139 0.084-0.027 0.18-0.040 0.286-0.040 0.080 0 0.158 0.009 0.218 0.021 0.082 0.018 0.114 0.027 0.136 0.033 0.087 0.027 0.099 0.001 0.116-0.041l0.203-0.556c0.021-0.060-0.030-0.085-0.049-0.093zM15.458 16.994c0 0.044-0.032 0.080-0.076 0.080h-0.705c-0.045 0-0.076-0.036-0.076-0.080v-5.655c0-0.044 0.031-0.080 0.076-0.080h0.705c0.044 0 0.076 0.036 0.076 0.080v5.655z"></path>
</symbol>
<symbol id="icon-hubspot" viewBox="0 0 110 32">
<path fill="#898feb" style="fill: var(--color2, #898feb)" d="M0.013 5.951h3.825v8.512h8.068v-8.511h3.831v20.896h-3.831v-8.692h-8.068v8.692h-3.825v-20.897zM27.856 20.040c-0.001 1.751-1.419 3.17-3.17 3.174h-0c-1.75-0.003-3.168-1.422-3.169-3.172v-8.997h-3.628v8.997c0 3.753 3.049 6.807 6.797 6.807s6.796-3.054 6.796-6.807v-8.997h-3.627v8.997zM41.61 11.15c-1.8 0-3.056 0.523-4.27 1.716v-6.915h-3.639v12.814c0 4.797 3.462 8.082 7.352 8.082 4.325 0 8.113-3.344 8.113-7.849 0-4.447-3.493-7.848-7.557-7.848zM41.7 23.474c-2.466 0-4.352-2.063-4.352-4.476s1.886-4.476 4.352-4.476c2.090 0 3.977 2.064 3.977 4.476s-1.887 4.476-3.977 4.476zM55.28 12.068c0-1.832 1.22-2.414 2.554-2.414 1.075 0 2.496 0.814 3.425 1.803l2.379-2.79c-1.189-1.598-3.598-2.704-5.571-2.704-3.948 0-6.792 2.297-6.792 6.105 0 7.064 8.678 4.825 8.678 8.779 0 1.22-1.19 2.297-2.553 2.297-2.149 0-2.845-1.047-3.832-2.152l-2.642 2.733c1.685 2.064 3.773 3.11 6.27 3.11 3.743 0 6.762-2.325 6.762-5.959 0-7.848-8.678-5.406-8.678-8.807zM73.539 10.945c-3.889 0-7.352 3.282-7.352 8.080v12.848h3.639v-6.948c1.214 1.192 2.469 1.716 4.27 1.716 4.063 0 7.558-3.401 7.558-7.848 0-4.506-3.791-7.848-8.114-7.848zM74.186 23.27c-2.466 0-4.352-2.065-4.352-4.476 0-2.414 1.886-4.477 4.352-4.477 2.089 0 3.977 2.064 3.977 4.477 0 2.411-1.888 4.476-3.977 4.476zM108.443 23.474c-2.147 0-2.757-0.93-2.757-2.355v-6.307h3.337v-3.197h-3.337v-4.215l-3.685 1.656v12.848c0 3.285 2.263 4.943 5.367 4.943 0.464 0 1.104-0.030 1.452-0.116l0.901-3.313c-0.407 0.027-0.871 0.057-1.278 0.057z"></path>
<path fill="#898feb" style="fill: var(--color2, #898feb)" d="M98.845 14.998c-0.698-1.202-1.679-2.167-2.906-2.892-0.845-0.509-1.838-0.869-2.899-1.015l-0.041-0.005v-3.821c1.072-0.455 1.736-1.464 1.736-2.64 0-0.004 0-0.010 0-0.015 0-1.594-1.29-2.886-2.883-2.889h-0c-1.604 0.001-2.905 1.3-2.907 2.904v0c0 1.177 0.626 2.185 1.698 2.64v3.822c-0.955 0.141-1.816 0.423-2.606 0.826l0.047-0.022c-1.658-1.262-7.094-5.399-10.274-7.815 0.075-0.272 0.133-0.553 0.133-0.849 0-0.001 0-0.002 0-0.004 0-1.774-1.438-3.211-3.211-3.212h-0c-1.773 0.002-3.209 1.439-3.209 3.212 0 0.001 0 0.003 0 0.004v-0c0 0.001 0 0.002 0 0.003 0 1.774 1.437 3.212 3.211 3.214h0c0.605 0 1.165-0.177 1.648-0.469l0.671 0.51 9.222 6.655c-0.494 0.447-0.924 0.95-1.287 1.501l-0.018 0.029c-0.736 1.167-1.186 2.45-1.186 3.85v0.293c0 0.982 0.186 1.911 0.504 2.782 0.302 0.797 0.705 1.485 1.205 2.091l-0.010-0.012-3.060 3.073c-0.255-0.098-0.551-0.155-0.86-0.155-0.683 0-1.302 0.279-1.747 0.728l-0 0c-0.448 0.447-0.726 1.065-0.726 1.748 0 0.003 0 0.006 0 0.009v-0c0 0.664 0.259 1.288 0.728 1.757 0.446 0.45 1.065 0.729 1.749 0.729 0.002 0 0.003 0 0.005 0h-0c0.002 0 0.004 0 0.007 0 0.684 0 1.302-0.279 1.748-0.729l0-0c0.449-0.447 0.727-1.066 0.727-1.75 0-0.003 0-0.005 0-0.008v0c0-0.256-0.040-0.507-0.114-0.746l3.163-3.169c0.433 0.301 0.902 0.553 1.406 0.771 0.968 0.436 2.098 0.691 3.288 0.692h0.221c0.010 0 0.023 0 0.035 0 1.364 0 2.645-0.352 3.758-0.971l-0.040 0.020c1.22-0.664 2.215-1.604 2.924-2.741l0.019-0.033c0.736-1.181 1.142-2.486 1.142-3.921v-0.071c0-1.413-0.326-2.715-1.012-3.909zM94.981 21.645c-0.859 0.956-1.846 1.545-2.961 1.545h-0.184c-0.637 0-1.262-0.176-1.872-0.497-0.688-0.353-1.21-0.857-1.638-1.495-0.442-0.626-0.682-1.31-0.682-2.035v-0.22c0-0.713 0.136-1.389 0.48-2.027 0.363-0.69 0.881-1.254 1.51-1.662l0.017-0.010c0.585-0.4 1.308-0.638 2.087-0.638 0.009 0 0.018 0 0.028 0h0.071c0.699 0 1.362 0.138 1.988 0.459 0.64 0.343 1.166 0.824 1.551 1.407l0.010 0.016c0.372 0.568 0.622 1.248 0.699 1.979l0.002 0.020c0.012 0.15 0.017 0.304 0.017 0.45 0 0.98-0.374 1.887-1.121 2.711z"></path>
</symbol>
<symbol id="icon-mailchimp" viewBox="0 0 64 32">
<path fill="#898feb" style="fill: var(--color8, #898feb)" d="M51.721 18.924l0.015 0c0.882 0 1.502-0.61 1.509-1.485 0.003-0.433-0.122-0.829-0.352-1.115-0.243-0.303-0.585-0.464-0.986-0.468h-0.008c-0.542 0-1.045 0.411-1.538 1.257l-0.039 0.067-0.025-0.073c-0.124-0.363-0.236-0.665-0.302-0.846-0.015-0.034-0.039-0.101-0.062-0.168l-0.010-0.033c-0.024-0.092-0.102-0.148-0.205-0.148-0.072 0.002-0.139 0.025-0.195 0.062l0.001-0.001c-0.057 0.033-0.097 0.088-0.11 0.153l-0 0.001-0.003 0.010c-0.494 1.54-0.901 2.288-1.246 2.288-0.002 0-0.004 0-0.006 0-0.044 0-0.085-0.019-0.112-0.050l-0-0c-0.091-0.099-0.068-0.337-0.037-0.666 0.023-0.242 0.048-0.515 0.037-0.805-0.020-0.558-0.325-0.893-0.816-0.896-0.624 0-1.028 0.664-1.214 1.060l-0.056 0.118-0.012-0.13c-0.046-0.49-0.211-1.075-0.73-1.079-0.605 0-1.067 0.71-1.348 1.307l-0.075 0.16 0.007-0.177c0.033-0.795 0.061-1.264 0.082-1.395s0.010-0.219-0.033-0.268c-0.041-0.047-0.117-0.064-0.229-0.057-0.194 0.012-0.293 0.13-0.442 0.526-0.245 0.649-0.869 2.16-1.367 2.16-0.099-0.001-0.177-0.034-0.234-0.1-0.209-0.239-0.125-0.886-0.010-1.781l0.009-0.068c0.055-0.424-0.039-0.514-0.269-0.556-0.021-0.004-0.045-0.007-0.070-0.007h-0c-0.184 0-0.27 0.176-0.441 0.665-0.306 0.871-0.699 1.787-1.158 1.787-0 0-0 0-0.001 0-0.018 0-0.035-0.001-0.051-0.004l0.002 0c-0.243-0.042-0.238-0.403-0.231-0.861 0.004-0.247 0.007-0.528-0.030-0.781-0.069-0.455-0.336-0.739-0.699-0.741-0.724 0-1.212 0.927-1.439 1.479l-0.051 0.125-0.017-0.134c-0.041-0.302-0.072-0.671-0.087-1.044l-0.001-0.024-0.001-0.014 0.008-0.010c1.354-1.705 1.962-2.935 1.97-3.989 0.005-0.673-0.306-1.078-0.831-1.082-0.384 0-1.298 0.32-1.616 3.285-0.056 0.497-0.091 1.079-0.096 1.668l-0 0.008v0.011l-0.006 0.009c-0.62 0.897-1.942 2.44-3.237 2.44-1.17 0-2.103-0.947-2.103-2.617 0-2.24 1.585-3.614 2.779-3.614h0.010c0.259 0.002 0.481 0.074 0.643 0.209 0.167 0.14 0.255 0.337 0.254 0.568-0.003 0.309-0.103 0.468-0.201 0.622-0.025 0.040-0.050 0.079-0.073 0.121s-0.044 0.103-0.014 0.155c0.031 0.053 0.112 0.087 0.209 0.088 0.284 0 0.713-0.411 0.718-1.030 0.005-0.648-0.541-1.316-1.515-1.316-1.474 0-3.46 1.62-3.46 4.245 0 1.857 1.165 3.14 2.741 3.14 1.119 0 2.226-0.801 3.206-2.14l0.060-0.081 0.004 0.101c0.021 0.49 0.057 0.876 0.083 1.157 0.016 0.181 0.029 0.312 0.029 0.384-0.002 0.158 0.024 0.268 0.079 0.336s0.141 0.099 0.273 0.1c0.22 0 0.264-0.15 0.351-0.52l0.025-0.106c0.108-0.449 0.508-1.914 1.11-1.914 0.098 0.001 0.174 0.030 0.228 0.087 0.133 0.141 0.118 0.43 0.101 0.766-0.011 0.209-0.021 0.425-0 0.636 0.057 0.568 0.302 0.846 0.75 0.849 0.46 0 0.94-0.495 1.193-0.956l0.048-0.087 0.018 0.098c0.047 0.246 0.256 1.055 0.91 1.055 0.594 0 1.102-0.625 1.66-1.911l0.073-0.168-0.005 0.183c-0.012 0.487-0.038 1.082-0.038 1.542-0 0.356 0.035 0.492 0.2 0.492l0.037 0.002c0.158 0 0.265-0.094 0.318-0.28 0.42-1.463 0.783-2.145 1.142-2.145 0.352 0.003 0.385 0.646 0.413 1.783l0.002 0.080c0.008 0.398 0.023 0.574 0.27 0.576 0.188 0 0.234-0.147 0.331-0.51 0.018-0.069 0.039-0.145 0.062-0.227 0.339-1.176 0.62-1.656 0.97-1.656 0.299 0.002 0.316 0.311 0.322 0.413 0.012 0.217-0.011 0.445-0.032 0.665-0.020 0.204-0.041 0.415-0.033 0.611 0.018 0.46 0.27 0.715 0.709 0.718 0.57 0 1.084-0.666 1.535-1.98l0.031-0.091 0.036 0.090c0.082 0.207 0.188 0.486 0.286 0.82l0.004 0.013-0.005 0.012c-0.436 0.969-0.744 2.047-0.748 2.624-0.006 0.759 0.338 1.253 0.875 1.257h0.009c0.293 0 0.974-0.117 0.987-1.204 0.005-0.445-0.1-1.075-0.313-1.871l-0.024-0.091 0.078 0.052c0.249 0.17 0.555 0.273 0.884 0.279l0.001 0zM37.034 15.241c0.012-0.272 0.035-0.537 0.068-0.788 0.211-1.615 0.651-2.743 1.071-2.743h0.002c0.2 0.002 0.3 0.153 0.298 0.45-0.006 0.729-0.468 1.773-1.373 3.103l-0.071 0.104 0.005-0.126zM50.418 21.048c-0.060 0.082-0.156 0.134-0.265 0.134-0.004 0-0.008-0-0.012-0l0.001 0c-0.134-0.001-0.234-0.048-0.302-0.139-0.192-0.256-0.138-0.858 0.175-1.95 0.037-0.13 0.078-0.261 0.121-0.39l0.036-0.109 0.032 0.11c0.364 1.261 0.436 2.049 0.215 2.343zM50.531 17.818l-0.007-0.012-0.013-0.042 0.006-0.012c0.415-0.855 0.891-1.346 1.305-1.346h0.004c0.467 0.004 0.791 0.425 0.786 1.022-0.003 0.4-0.179 0.629-0.326 0.752-0.165 0.137-0.38 0.22-0.613 0.22h-0c-0.547-0.004-0.923-0.319-1.142-0.582zM51.822 16.442v0zM24.053 18.784c0.641-0.051 1.149-0.923 1.338-1.295l0.049-0.096 0.018 0.106c0.091 0.524 0.375 1.404 1.267 1.411h0.008c0.385 0 0.823-0.236 1.264-0.682l0.032-0.033 0.023 0.039c0.298 0.498 0.697 0.763 1.122 0.741 0.626-0.032 1.005-0.476 1.039-0.784 0.002-0.011 0.003-0.024 0.003-0.037 0-0.063-0.023-0.121-0.060-0.166l0 0c-0.056-0.062-0.138-0.070-0.198-0.012l-0.029 0.027c-0.146 0.14-0.417 0.4-0.713 0.416-0.362 0.018-0.63-0.199-0.803-0.645l-0.007-0.019 0.012-0.016c0.995-1.302 1.694-3.289 1.625-4.622-0.032-0.617-0.211-1.352-0.885-1.352l-0.050 0.001c-0.258 0.013-0.492 0.137-0.697 0.365-0.625 0.699-0.952 2.42-0.833 4.384 0.025 0.408 0.095 0.79 0.211 1.134l0.006 0.020-0.013 0.015c-0.369 0.432-0.734 0.669-1.026 0.669-0.704 0-0.68-1.18-0.624-2.158 0.012-0.211 0.030-0.345-0.032-0.422-0.044-0.055-0.119-0.082-0.228-0.083h-0.013c-0.251 0-0.303 0.052-0.431 0.423-0.267 0.772-0.793 2.068-1.322 2.068-0.147-0.002-0.259-0.052-0.336-0.149-0.256-0.328-0.062-1.145 0.095-1.802 0.028-0.118 0.055-0.232 0.078-0.336 0.034-0.156 0.024-0.269-0.031-0.338s-0.165-0.096-0.311-0.085c-0.227 0.018-0.372 0.113-0.442 0.544l-0.014 0.090-0.053-0.064c-0.099-0.146-0.292-0.32-0.65-0.32-0.031 0-0.064 0.001-0.098 0.004-0.382 0.031-0.818 0.298-1.136 0.695-0.317 0.394-0.509 0.901-0.509 1.453 0 0.071 0.003 0.141 0.009 0.211l-0.001-0.009c0.003 0.032 0.007 0.062 0.012 0.093l0.003 0.017-0.012 0.013c-0.222 0.242-0.449 0.365-0.674 0.365-0.347-0.002-0.546-0.26-0.546-0.69 0-0.722 0.49-2.901 0.49-3.689 0-0.839-0.374-1.296-1.023-1.301h-0.010c-0.948 0-1.687 1.076-2.395 3.29-0.067 0.212-0.133 0.425-0.195 0.639l-0.099 0.333 0.029-0.346c0.064-0.742 0.109-1.486 0.134-2.23 0.035-1.070-0.109-1.758-0.442-2.105-0.18-0.187-0.417-0.279-0.726-0.281h-0.008c-1.161 0-1.716 1.957-2.121 3.337-0.122 0.417-0.363 1.357-0.524 2l0.096-0.155c0.071-0.809 0.278-2.837 0.265-3.937-0.015-1.18-0.407-1.709-1.274-1.716h-0.011c-0.463 0-0.784 0.23-0.972 0.423-0.302 0.31-0.49 0.763-0.479 1.154 0.006 0.238 0.152 0.449 0.263 0.449 0.072 0 0.112-0.096 0.129-0.153 0.268-0.886 0.615-1.317 1.060-1.317 0.185 0.002 0.322 0.056 0.425 0.167 0.348 0.373 0.284 1.381 0.17 3.211-0.027 0.336-0.068 1.037-0.103 1.739l-0.011 0.279c-0.006 0.126-0.013 0.251-0.022 0.376-0.034 0.528-0.061 0.944 0.139 0.976 0.261 0.041 0.43-0.065 0.517-0.323 0.129-0.382 0.417-1.428 0.976-3.338 0.535-1.833 0.94-2.5 1.458-2.5 0.598 0 0.643 1.027 0.533 3.195-0.023 0.46-0.055 0.98-0.079 1.546-0.003 0.080-0.007 0.157-0.011 0.231-0.023 0.469-0.041 0.839 0.093 0.981 0.042 0.044 0.099 0.066 0.174 0.066 0.259 0 0.338-0.227 0.467-0.604 0.023-0.066 0.047-0.138 0.074-0.212 0.888-2.451 1.545-4.578 2.427-4.578 0.264 0 0.47 0.215 0.47 0.634 0 0.967-0.473 2.836-0.473 3.783 0 0.34 0.098 0.644 0.282 0.859 0.189 0.22 0.455 0.337 0.766 0.34h0.007c0.295 0 0.602-0.143 0.914-0.426l0.029-0.027 0.023 0.032c0.205 0.276 0.536 0.424 0.894 0.396 0.548-0.043 1.008-0.531 1.179-0.991l0.034-0.090 0.034 0.090c0.127 0.341 0.402 0.753 0.99 0.705zM29.102 12.379h0.010c0.062 0 0.118 0.031 0.163 0.093 0.217 0.294 0.221 1.368-0.154 2.59-0.214 0.699-0.501 1.358-0.831 1.907l-0.053 0.087-0.013-0.101c-0.039-0.295-0.058-0.603-0.071-0.865-0.096-1.847 0.463-3.686 0.95-3.712zM23.022 16.695c-0.192 0.771-0.56 1.703-1.223 1.756l-0.054 0.002c-0.275 0-0.429-0.18-0.459-0.535-0.036-0.445 0.155-0.965 0.488-1.327 0.212-0.23 0.451-0.357 0.674-0.357h0.004c0.281 0.002 0.477 0.227 0.567 0.437l0.005 0.011-0.003 0.012zM26.098 13.866c-0.245 0-0.442 0.193-0.444 0.43 0.001 0.241 0.196 0.436 0.437 0.436 0 0 0 0 0 0v0l0.004 0.036v-0.036c0.241 0 0.439-0.193 0.441-0.43-0-0.241-0.196-0.437-0.437-0.437-0 0-0 0-0 0h0zM41.489 13.866c-0.245 0-0.442 0.193-0.444 0.43 0 0.241 0.196 0.436 0.437 0.436 0 0 0 0 0 0h-0l0.004 0.036v-0.036c0.242 0 0.439-0.193 0.441-0.43-0-0.241-0.196-0.437-0.437-0.437-0 0-0 0-0 0h0z"></path>
<path fill="#898feb" style="fill: var(--color9, #898feb)" d="M53.475 18.436c-0.166 0-0.3 0.135-0.3 0.3s0.135 0.3 0.3 0.3c0 0 0 0 0.001 0h-0c0.166-0 0.3-0.135 0.3-0.3s-0.135-0.3-0.3-0.3c-0 0-0 0-0.001 0h0zM53.475 18.994c-0.141-0-0.256-0.115-0.256-0.256s0.115-0.256 0.256-0.256c0.141 0 0.256 0.115 0.256 0.256v0c0 0 0 0 0 0 0 0.142-0.115 0.256-0.256 0.256-0 0-0.001 0-0.001 0h0zM53.608 18.658c0-0.062-0.031-0.096-0.109-0.096h-0.133v0.346h0.043v-0.151h0.062l0.103 0.151h0.049l-0.103-0.151c0.047-0.008 0.087-0.035 0.087-0.099zM53.465 18.718h-0.056v-0.117h0.078c0.037 0 0.078 0.012 0.078 0.057-0 0.058-0.052 0.060-0.099 0.060z"></path>
</symbol>
<symbol id="icon-sendgrid" viewBox="0 0 181 32">
<path fill="#898feb" style="fill: var(--color2, #898feb)" opacity="0.33" d="M0 10.514h20.871v21.028h-20.871z"></path>
<path fill="#898feb" style="fill: var(--color2, #898feb)" d="M37.249 27.251l4.559-3.602c1.283 2.236 3.329 3.527 5.671 3.527 2.539 0 3.896-1.664 3.896-3.477 0-2.161-2.614-2.856-5.4-3.726-3.501-1.092-7.42-2.458-7.42-7.501 0-4.223 3.648-7.576 8.701-7.576 4.266 0 6.706 1.614 8.825 3.826l-4.117 3.128c-1.085-1.614-2.613-2.483-4.658-2.483-2.318 0-3.576 1.266-3.576 2.93 0 2.012 2.515 2.707 5.301 3.651 3.549 1.169 7.569 2.733 7.569 7.8 0 4.198-3.304 8.221-9.071 8.221-4.758 0.025-7.914-2.012-10.282-4.719zM77.333 13.565h4.881v2.013c1.159-1.491 2.908-2.385 4.954-2.385 4.216 0 6.78 2.731 6.78 7.402v11.002h-4.981v-10.332c0-2.41-1.109-3.826-3.302-3.826-1.874 0-3.403 1.293-3.403 4.323v9.86h-4.906v-18.058h-0.024zM95.058 22.607c0-6.383 4.658-9.389 8.701-9.389 2.317 0 4.166 0.868 5.35 2.136v-10.084h4.906v26.351h-4.906v-2.010c-1.183 1.415-3.082 2.385-5.398 2.385-3.798 0-8.654-3.055-8.654-9.389zM109.256 22.557c0-2.682-1.923-4.843-4.586-4.843-2.712 0-4.807 2.062-4.807 4.842 0 2.783 2.072 4.87 4.808 4.87 2.637 0 4.584-2.186 4.584-4.87zM115.172 18.458c0-7.501 5.621-13.536 13.362-13.536 3.871 0 7.123 1.416 9.491 3.651 0.936 0.893 1.738 1.915 2.381 3.040l0.034 0.065-4.363 2.682c-1.603-3.005-4.092-4.545-7.495-4.545-4.758 0-8.455 3.923-8.455 8.668 0 4.843 3.624 8.668 8.627 8.668 3.797 0 6.483-2.161 7.421-5.514h-8.209v-4.842h13.582v2.010c0 7.079-5.005 13.165-12.794 13.165-8.184 0.025-13.583-6.234-13.583-13.512zM142.783 13.565h4.881v2.957c0.888-1.888 2.515-2.957 4.956-2.957h1.971l-1.799 4.819h-1.331c-2.613 0-3.772 1.366-3.772 4.719v8.519h-4.906v-18.058zM155.848 13.565h4.906v18.059h-4.906v-13.238h-1.775l1.775-4.819zM158.314 10.834c1.62-0.002 2.933-1.315 2.933-2.936 0-0.007-0-0.015-0-0.022v0.001c0-0.006 0-0.013 0-0.019 0-1.62-1.313-2.934-2.933-2.936h-0c-1.621 0.001-2.934 1.315-2.934 2.936 0 0.007 0 0.014 0 0.021v-0.001c0 1.614 1.306 2.957 2.934 2.957zM161.913 22.607c0-6.383 4.658-9.389 8.701-9.389 2.318 0 4.167 0.868 5.35 2.136v-10.084h4.906v26.351h-4.906v-2.010c-1.183 1.415-3.082 2.385-5.398 2.385-3.822 0-8.653-3.055-8.653-9.389zM176.111 22.557c0-2.682-1.923-4.843-4.584-4.843-2.712 0-4.807 2.062-4.807 4.842 0 2.783 2.070 4.87 4.807 4.87 2.638 0 4.584-2.186 4.584-4.87zM76.174 22.557c0-5.191-3.772-9.338-9.244-9.338-5.153 0-9.319 4.198-9.319 9.389 0 5.19 3.871 9.389 9.466 9.389 3.871 0 6.656-1.888 8.209-4.57l-3.896-2.335c-0.813 1.589-2.415 2.582-4.288 2.582-2.588 0-4.192-1.291-4.758-3.278h13.83v-1.838zM62.567 20.397c0.764-1.689 2.317-2.856 4.412-2.856 2.070 0 3.624 0.968 4.264 2.856h-8.676z"></path>
<path fill="#6970d8" style="fill: var(--color3, #6970d8)" d="M0 21.092h10.453v10.531h-10.453v-10.532z"></path>
<path fill="#898feb" style="fill: var(--color2, #898feb)" opacity="0.67" d="M20.929 10.536v-10.532h-10.477v21.088h20.929v-10.556h-10.453z"></path>
<path fill="#6970d8" style="fill: var(--color3, #6970d8)" d="M20.929 0.004h10.451v10.532h-10.451v-10.532z"></path>
</symbol>
<symbol id="icon-outlook" viewBox="0 0 31 32">
<path fill="#898feb" style="fill: var(--color2, #898feb)" d="M0 3.568l18.446-3.563-0.064 31.989-18.382-3.814v-24.612zM6.541 20.18c-1.395-1.633-1.784-4.198-1.116-6.33 0.928-2.964 3.284-3.965 5.255-3.279 1.125 0.394 2.127 1.34 2.661 2.79 0.257 0.695 0.394 1.491 0.403 2.3 0.018 1.455-0.485 3.165-1.482 4.359-1.532 1.829-4.13 2.017-5.717 0.16h-0.004zM7.977 18.63c-0.686-1.020-0.874-2.621-0.549-3.952 0.453-1.847 1.61-2.474 2.575-2.044 0.553 0.247 1.043 0.837 1.303 1.743 0.123 0.434 0.192 0.928 0.196 1.436 0.010 0.906-0.238 1.976-0.727 2.722-0.75 1.143-2.021 1.258-2.799 0.101v-0.005zM19.649 6.747h10.707c0.599 0 1.089 0.49 1.089 1.089v0.394l-8.415 5.676c-0.109 0.073-0.379 0.284-0.603 0.426-0.33 0.215-0.352 0.174-0.7-0.023-0.535-0.298-1.459-0.929-2.081-1.358v-6.203h0.004zM31.45 10.749v11.453c-0.004 0.921-0.749 1.666-1.669 1.669h-10.132v-8.471c0.608 0.403 1.418 0.933 1.916 1.24 0.403 0.247 0.476 0.361 0.924 0.1 0.206-0.119 0.407-0.274 0.544-0.366l8.416-5.626z"></path>
</symbol>
</defs>
</svg>
